<mxfile host="app.diagrams.net" agent="Mozilla/5.0 (Windows NT 10.0; Win64; x64; rv:140.0) Gecko/20100101 Firefox/140.0" version="27.1.1">
  <diagram name="PÃ¡gina-1" id="ejM3zH0JVfZ_YqJjOYbP">
    <mxGraphModel grid="1" page="1" gridSize="10" guides="1" tooltips="1" connect="1" arrows="1" fold="1" pageScale="1" pageWidth="827" pageHeight="1169" background="none" math="0" shadow="0">
      <root>
        <mxCell id="0" />
        <mxCell id="1" parent="0" />
        <mxCell id="wYt7i24Af8fksZ222eV3-1" value="" style="whiteSpace=wrap;html=1;" vertex="1" parent="1">
          <mxGeometry x="-600" y="40" width="1080" height="680" as="geometry" />
        </mxCell>
        <mxCell id="wYt7i24Af8fksZ222eV3-4" value="" style="rounded=0;whiteSpace=wrap;html=1;" vertex="1" parent="1">
          <mxGeometry x="-800" y="40" width="1280" height="30" as="geometry" />
        </mxCell>
        <mxCell id="wYt7i24Af8fksZ222eV3-5" value="Sistema de Gallina Feliz" style="text;html=1;align=center;verticalAlign=middle;whiteSpace=wrap;rounded=0;" vertex="1" parent="1">
          <mxGeometry x="-800" y="40" width="1280" height="30" as="geometry" />
        </mxCell>
        <mxCell id="uGXpiW6hWEtXekt-hqfW-10" style="edgeStyle=orthogonalEdgeStyle;rounded=0;orthogonalLoop=1;jettySize=auto;html=1;entryX=0.5;entryY=0;entryDx=0;entryDy=0;" edge="1" parent="1" source="wYt7i24Af8fksZ222eV3-13" target="wYt7i24Af8fksZ222eV3-18">
          <mxGeometry relative="1" as="geometry" />
        </mxCell>
        <mxCell id="U_gQNEzkCNmI3OpJBA2w-63" style="edgeStyle=orthogonalEdgeStyle;rounded=0;orthogonalLoop=1;jettySize=auto;html=1;" edge="1" parent="1" source="uGXpiW6hWEtXekt-hqfW-1" target="U_gQNEzkCNmI3OpJBA2w-60">
          <mxGeometry relative="1" as="geometry" />
        </mxCell>
        <mxCell id="uGXpiW6hWEtXekt-hqfW-1" value="Crear orden de despacho" style="rounded=1;whiteSpace=wrap;html=1;" vertex="1" parent="1">
          <mxGeometry x="-365" y="395" width="90" height="30" as="geometry" />
        </mxCell>
        <mxCell id="uGXpiW6hWEtXekt-hqfW-23" value="" style="rounded=0;whiteSpace=wrap;html=1;" vertex="1" parent="1">
          <mxGeometry x="-800" y="70" width="200" height="650" as="geometry" />
        </mxCell>
        <mxCell id="uGXpiW6hWEtXekt-hqfW-29" value="Otorgar roles de usuario" style="rounded=1;whiteSpace=wrap;html=1;" vertex="1" parent="1">
          <mxGeometry x="-560" y="445" width="130" height="30" as="geometry" />
        </mxCell>
        <mxCell id="uGXpiW6hWEtXekt-hqfW-33" value="Crear cuentas de usuario" style="rounded=1;whiteSpace=wrap;html=1;" vertex="1" parent="1">
          <mxGeometry x="-585" y="500" width="130" height="30" as="geometry" />
        </mxCell>
        <mxCell id="uGXpiW6hWEtXekt-hqfW-34" style="edgeStyle=orthogonalEdgeStyle;rounded=0;orthogonalLoop=1;jettySize=auto;html=1;exitX=1;exitY=0.5;exitDx=0;exitDy=0;exitPerimeter=0;" edge="1" parent="1" source="2GRjtVOv6-w5aZt-ovkl-2">
          <mxGeometry relative="1" as="geometry">
            <mxPoint x="240" y="635" as="targetPoint" />
            <Array as="points">
              <mxPoint x="20" y="635" />
            </Array>
            <mxPoint x="-315" y="462.5" as="sourcePoint" />
          </mxGeometry>
        </mxCell>
        <mxCell id="U_gQNEzkCNmI3OpJBA2w-65" style="edgeStyle=orthogonalEdgeStyle;rounded=0;orthogonalLoop=1;jettySize=auto;html=1;" edge="1" parent="1" source="uGXpiW6hWEtXekt-hqfW-35" target="U_gQNEzkCNmI3OpJBA2w-60">
          <mxGeometry relative="1" as="geometry">
            <Array as="points">
              <mxPoint x="-117" y="470" />
              <mxPoint y="470" />
            </Array>
          </mxGeometry>
        </mxCell>
        <mxCell id="uGXpiW6hWEtXekt-hqfW-35" value="Crear reporte de stock" style="rounded=1;whiteSpace=wrap;html=1;" vertex="1" parent="1">
          <mxGeometry x="-165" y="310" width="95" height="30" as="geometry" />
        </mxCell>
        <mxCell id="U_gQNEzkCNmI3OpJBA2w-64" style="edgeStyle=orthogonalEdgeStyle;rounded=0;orthogonalLoop=1;jettySize=auto;html=1;" edge="1" parent="1" source="uGXpiW6hWEtXekt-hqfW-36" target="U_gQNEzkCNmI3OpJBA2w-60">
          <mxGeometry relative="1" as="geometry">
            <Array as="points">
              <mxPoint x="230" y="545" />
            </Array>
          </mxGeometry>
        </mxCell>
        <mxCell id="uGXpiW6hWEtXekt-hqfW-36" value="Crear reporte de calidad" style="rounded=1;whiteSpace=wrap;html=1;" vertex="1" parent="1">
          <mxGeometry x="180" y="385" width="150" height="30" as="geometry" />
        </mxCell>
        <mxCell id="2GRjtVOv6-w5aZt-ovkl-12" style="edgeStyle=orthogonalEdgeStyle;rounded=0;orthogonalLoop=1;jettySize=auto;html=1;exitX=0;exitY=0;exitDx=70;exitDy=30;exitPerimeter=0;entryX=1;entryY=0.5;entryDx=0;entryDy=0;" edge="1" parent="1" source="2GRjtVOv6-w5aZt-ovkl-1" target="2GRjtVOv6-w5aZt-ovkl-3">
          <mxGeometry relative="1" as="geometry" />
        </mxCell>
        <mxCell id="2GRjtVOv6-w5aZt-ovkl-1" value="&lt;font style=&quot;font-size: 11px;&quot;&gt;Recibir informaciones&lt;/font&gt;" style="html=1;shape=mxgraph.infographic.ribbonSimple;notch1=20;notch2=0;align=center;verticalAlign=middle;fontSize=14;fontStyle=0;fillColor=#FFFFFF;flipH=0;spacingRight=0;spacingLeft=14;whiteSpace=wrap;" vertex="1" parent="1">
          <mxGeometry x="235" y="620" width="165" height="30" as="geometry" />
        </mxCell>
        <mxCell id="2GRjtVOv6-w5aZt-ovkl-2" value="Enviar informaciones" style="html=1;shape=mxgraph.infographic.ribbonSimple;notch1=0;notch2=20;align=center;verticalAlign=middle;fontSize=14;fontStyle=0;fillColor=#FFFFFF;whiteSpace=wrap;" vertex="1" parent="1">
          <mxGeometry x="-80" y="620" width="160" height="30" as="geometry" />
        </mxCell>
        <mxCell id="2GRjtVOv6-w5aZt-ovkl-3" value="" style="ellipse;html=1;shape=endState;fillColor=strokeColor;" vertex="1" parent="1">
          <mxGeometry x="-525" y="660" width="30" height="30" as="geometry" />
        </mxCell>
        <mxCell id="U_gQNEzkCNmI3OpJBA2w-2" style="edgeStyle=orthogonalEdgeStyle;rounded=0;orthogonalLoop=1;jettySize=auto;html=1;exitX=0.5;exitY=1;exitDx=0;exitDy=0;" edge="1" parent="1" source="2GRjtVOv6-w5aZt-ovkl-4" target="wYt7i24Af8fksZ222eV3-13">
          <mxGeometry relative="1" as="geometry" />
        </mxCell>
        <mxCell id="2GRjtVOv6-w5aZt-ovkl-4" value="" style="ellipse;fillColor=strokeColor;html=1;" vertex="1" parent="1">
          <mxGeometry x="-730" y="130" width="30" height="30" as="geometry" />
        </mxCell>
        <mxCell id="U_gQNEzkCNmI3OpJBA2w-68" style="edgeStyle=orthogonalEdgeStyle;rounded=0;orthogonalLoop=1;jettySize=auto;html=1;endArrow=none;startFill=0;" edge="1" parent="1" source="2GRjtVOv6-w5aZt-ovkl-13" target="2GRjtVOv6-w5aZt-ovkl-1">
          <mxGeometry relative="1" as="geometry">
            <Array as="points">
              <mxPoint x="310" y="600" />
              <mxPoint x="310" y="600" />
            </Array>
          </mxGeometry>
        </mxCell>
        <mxCell id="2GRjtVOv6-w5aZt-ovkl-13" value="Reporte de calidad recibido" style="rounded=0;whiteSpace=wrap;html=1;" vertex="1" parent="1">
          <mxGeometry x="294" y="490" width="120" height="30" as="geometry" />
        </mxCell>
        <mxCell id="U_gQNEzkCNmI3OpJBA2w-69" style="edgeStyle=orthogonalEdgeStyle;rounded=0;orthogonalLoop=1;jettySize=auto;html=1;endArrow=none;startFill=0;" edge="1" parent="1" source="2GRjtVOv6-w5aZt-ovkl-14" target="2GRjtVOv6-w5aZt-ovkl-1">
          <mxGeometry relative="1" as="geometry">
            <Array as="points">
              <mxPoint x="340" y="610" />
              <mxPoint x="340" y="610" />
            </Array>
          </mxGeometry>
        </mxCell>
        <mxCell id="2GRjtVOv6-w5aZt-ovkl-14" value="Reporte de bodega recibido" style="rounded=0;whiteSpace=wrap;html=1;" vertex="1" parent="1">
          <mxGeometry x="320" y="530" width="120" height="30" as="geometry" />
        </mxCell>
        <mxCell id="U_gQNEzkCNmI3OpJBA2w-67" style="edgeStyle=orthogonalEdgeStyle;rounded=0;orthogonalLoop=1;jettySize=auto;html=1;endArrow=none;startFill=0;" edge="1" parent="1" source="2GRjtVOv6-w5aZt-ovkl-15" target="2GRjtVOv6-w5aZt-ovkl-1">
          <mxGeometry relative="1" as="geometry">
            <Array as="points">
              <mxPoint x="280" y="590" />
              <mxPoint x="280" y="590" />
            </Array>
          </mxGeometry>
        </mxCell>
        <mxCell id="2GRjtVOv6-w5aZt-ovkl-15" value="Orden de despacho recibida" style="rounded=0;whiteSpace=wrap;html=1;" vertex="1" parent="1">
          <mxGeometry x="270" y="450" width="120" height="30" as="geometry" />
        </mxCell>
        <mxCell id="wYt7i24Af8fksZ222eV3-2" value="Usuario" style="text;html=1;align=center;verticalAlign=middle;whiteSpace=wrap;rounded=0;strokeColor=default;" vertex="1" parent="1">
          <mxGeometry x="-800" y="70" width="200" height="30" as="geometry" />
        </mxCell>
        <mxCell id="wYt7i24Af8fksZ222eV3-6" value="Sistema" style="text;html=1;align=center;verticalAlign=middle;whiteSpace=wrap;rounded=0;strokeColor=default;" vertex="1" parent="1">
          <mxGeometry x="-600" y="70" width="1080" height="30" as="geometry" />
        </mxCell>
        <mxCell id="U_gQNEzkCNmI3OpJBA2w-4" style="edgeStyle=orthogonalEdgeStyle;rounded=0;orthogonalLoop=1;jettySize=auto;html=1;entryX=0.5;entryY=0;entryDx=0;entryDy=0;" edge="1" parent="1" source="wYt7i24Af8fksZ222eV3-13" target="wYt7i24Af8fksZ222eV3-18">
          <mxGeometry relative="1" as="geometry">
            <Array as="points" />
          </mxGeometry>
        </mxCell>
        <mxCell id="wYt7i24Af8fksZ222eV3-13" value="Inicio de sesion" style="rounded=1;whiteSpace=wrap;html=1;" vertex="1" parent="1">
          <mxGeometry x="-780" y="180" width="130" height="30" as="geometry" />
        </mxCell>
        <mxCell id="U_gQNEzkCNmI3OpJBA2w-9" style="edgeStyle=orthogonalEdgeStyle;rounded=0;orthogonalLoop=1;jettySize=auto;html=1;exitX=1;exitY=0.5;exitDx=0;exitDy=0;" edge="1" parent="1" source="wYt7i24Af8fksZ222eV3-18" target="U_gQNEzkCNmI3OpJBA2w-8">
          <mxGeometry relative="1" as="geometry">
            <Array as="points">
              <mxPoint x="-560" y="280" />
            </Array>
          </mxGeometry>
        </mxCell>
        <mxCell id="wYt7i24Af8fksZ222eV3-18" value="" style="rhombus;whiteSpace=wrap;html=1;" vertex="1" parent="1">
          <mxGeometry x="-735" y="260" width="40" height="40" as="geometry" />
        </mxCell>
        <mxCell id="wYt7i24Af8fksZ222eV3-22" value="No" style="text;html=1;align=center;verticalAlign=middle;whiteSpace=wrap;rounded=0;" vertex="1" parent="1">
          <mxGeometry x="-780" y="240" width="60" height="30" as="geometry" />
        </mxCell>
        <mxCell id="uGXpiW6hWEtXekt-hqfW-4" value="Si" style="text;html=1;align=center;verticalAlign=middle;whiteSpace=wrap;rounded=0;" vertex="1" parent="1">
          <mxGeometry x="-710" y="240" width="60" height="30" as="geometry" />
        </mxCell>
        <mxCell id="U_gQNEzkCNmI3OpJBA2w-7" style="edgeStyle=orthogonalEdgeStyle;rounded=0;orthogonalLoop=1;jettySize=auto;html=1;" edge="1" parent="1" source="wYt7i24Af8fksZ222eV3-23" target="wYt7i24Af8fksZ222eV3-13">
          <mxGeometry relative="1" as="geometry">
            <Array as="points">
              <mxPoint x="-770" y="220" />
              <mxPoint x="-770" y="220" />
            </Array>
          </mxGeometry>
        </mxCell>
        <mxCell id="wYt7i24Af8fksZ222eV3-23" value="Mensaje error" style="rounded=1;whiteSpace=wrap;html=1;" vertex="1" parent="1">
          <mxGeometry x="-780" y="340" width="130" height="30" as="geometry" />
        </mxCell>
        <mxCell id="U_gQNEzkCNmI3OpJBA2w-6" style="edgeStyle=orthogonalEdgeStyle;rounded=0;orthogonalLoop=1;jettySize=auto;html=1;exitX=0;exitY=0.5;exitDx=0;exitDy=0;" edge="1" parent="1" source="wYt7i24Af8fksZ222eV3-18" target="wYt7i24Af8fksZ222eV3-23">
          <mxGeometry relative="1" as="geometry">
            <Array as="points">
              <mxPoint x="-755" y="280" />
            </Array>
          </mxGeometry>
        </mxCell>
        <mxCell id="wYt7i24Af8fksZ222eV3-20" value="Â¿Inicio exitoso?" style="text;html=1;align=center;verticalAlign=middle;whiteSpace=wrap;rounded=0;" vertex="1" parent="1">
          <mxGeometry x="-710" y="220" width="100" height="20" as="geometry" />
        </mxCell>
        <mxCell id="U_gQNEzkCNmI3OpJBA2w-13" style="edgeStyle=orthogonalEdgeStyle;rounded=0;orthogonalLoop=1;jettySize=auto;html=1;exitX=0.25;exitY=1;exitDx=0;exitDy=0;" edge="1" parent="1" source="U_gQNEzkCNmI3OpJBA2w-8" target="U_gQNEzkCNmI3OpJBA2w-12">
          <mxGeometry relative="1" as="geometry">
            <Array as="points">
              <mxPoint x="-530" y="145" />
            </Array>
          </mxGeometry>
        </mxCell>
        <mxCell id="U_gQNEzkCNmI3OpJBA2w-19" style="edgeStyle=orthogonalEdgeStyle;rounded=0;orthogonalLoop=1;jettySize=auto;html=1;" edge="1" parent="1" source="U_gQNEzkCNmI3OpJBA2w-8" target="U_gQNEzkCNmI3OpJBA2w-18">
          <mxGeometry relative="1" as="geometry">
            <Array as="points">
              <mxPoint x="-510" y="280" />
              <mxPoint x="-320" y="280" />
            </Array>
          </mxGeometry>
        </mxCell>
        <mxCell id="U_gQNEzkCNmI3OpJBA2w-27" style="edgeStyle=orthogonalEdgeStyle;rounded=0;orthogonalLoop=1;jettySize=auto;html=1;" edge="1" parent="1" source="U_gQNEzkCNmI3OpJBA2w-8" target="U_gQNEzkCNmI3OpJBA2w-26">
          <mxGeometry relative="1" as="geometry">
            <Array as="points">
              <mxPoint x="-480" y="210" />
            </Array>
          </mxGeometry>
        </mxCell>
        <mxCell id="U_gQNEzkCNmI3OpJBA2w-41" style="edgeStyle=orthogonalEdgeStyle;rounded=0;orthogonalLoop=1;jettySize=auto;html=1;" edge="1" parent="1" source="U_gQNEzkCNmI3OpJBA2w-8" target="U_gQNEzkCNmI3OpJBA2w-40">
          <mxGeometry relative="1" as="geometry" />
        </mxCell>
        <mxCell id="U_gQNEzkCNmI3OpJBA2w-8" value="Verificar Rol en empresa" style="rounded=1;whiteSpace=wrap;html=1;" vertex="1" parent="1">
          <mxGeometry x="-575" y="110" width="130" height="35" as="geometry" />
        </mxCell>
        <mxCell id="U_gQNEzkCNmI3OpJBA2w-16" style="edgeStyle=orthogonalEdgeStyle;rounded=0;orthogonalLoop=1;jettySize=auto;html=1;curved=0;" edge="1" parent="1" source="U_gQNEzkCNmI3OpJBA2w-10" target="uGXpiW6hWEtXekt-hqfW-33">
          <mxGeometry relative="1" as="geometry">
            <Array as="points">
              <mxPoint x="-580" y="430" />
              <mxPoint x="-580" y="430" />
            </Array>
          </mxGeometry>
        </mxCell>
        <mxCell id="U_gQNEzkCNmI3OpJBA2w-21" style="edgeStyle=orthogonalEdgeStyle;rounded=0;orthogonalLoop=1;jettySize=auto;html=1;curved=0;" edge="1" parent="1" source="U_gQNEzkCNmI3OpJBA2w-10" target="uGXpiW6hWEtXekt-hqfW-29">
          <mxGeometry relative="1" as="geometry">
            <Array as="points">
              <mxPoint x="-495" y="420" />
              <mxPoint x="-495" y="420" />
            </Array>
          </mxGeometry>
        </mxCell>
        <mxCell id="U_gQNEzkCNmI3OpJBA2w-10" value="" style="html=1;points=[[0,0,0,0,5],[0,1,0,0,-5],[1,0,0,0,5],[1,1,0,0,-5]];perimeter=orthogonalPerimeter;outlineConnect=0;targetShapes=umlLifeline;portConstraint=eastwest;newEdgeStyle={&quot;curved&quot;:0,&quot;rounded&quot;:0};fillStyle=auto;fillColor=light-dark(#000000,#000000);direction=south;" vertex="1" parent="1">
          <mxGeometry x="-590" y="400" width="140" height="15" as="geometry" />
        </mxCell>
        <mxCell id="U_gQNEzkCNmI3OpJBA2w-15" style="edgeStyle=orthogonalEdgeStyle;rounded=0;orthogonalLoop=1;jettySize=auto;html=1;" edge="1" parent="1" source="U_gQNEzkCNmI3OpJBA2w-12" target="U_gQNEzkCNmI3OpJBA2w-10">
          <mxGeometry relative="1" as="geometry">
            <Array as="points">
              <mxPoint x="-520" y="340" />
              <mxPoint x="-520" y="340" />
            </Array>
          </mxGeometry>
        </mxCell>
        <mxCell id="U_gQNEzkCNmI3OpJBA2w-12" value="Verificar Rol (Es Rol Administrador)" style="rounded=1;whiteSpace=wrap;html=1;" vertex="1" parent="1">
          <mxGeometry x="-585" y="340" width="130" height="35" as="geometry" />
        </mxCell>
        <mxCell id="U_gQNEzkCNmI3OpJBA2w-38" style="edgeStyle=orthogonalEdgeStyle;rounded=0;orthogonalLoop=1;jettySize=auto;html=1;exitX=0.5;exitY=1;exitDx=0;exitDy=0;" edge="1" parent="1" source="U_gQNEzkCNmI3OpJBA2w-18" target="uGXpiW6hWEtXekt-hqfW-1">
          <mxGeometry relative="1" as="geometry" />
        </mxCell>
        <mxCell id="U_gQNEzkCNmI3OpJBA2w-18" value="Verificar Rol (Es Rol Proveedor)" style="rounded=1;whiteSpace=wrap;html=1;" vertex="1" parent="1">
          <mxGeometry x="-385" y="330" width="130" height="35" as="geometry" />
        </mxCell>
        <mxCell id="U_gQNEzkCNmI3OpJBA2w-29" style="edgeStyle=orthogonalEdgeStyle;rounded=0;orthogonalLoop=1;jettySize=auto;html=1;" edge="1" parent="1" source="U_gQNEzkCNmI3OpJBA2w-26" target="U_gQNEzkCNmI3OpJBA2w-28">
          <mxGeometry relative="1" as="geometry">
            <Array as="points">
              <mxPoint x="-95" y="250" />
              <mxPoint x="-95" y="250" />
            </Array>
          </mxGeometry>
        </mxCell>
        <mxCell id="U_gQNEzkCNmI3OpJBA2w-26" value="Verificar Rol (Es Rol Bodega)" style="rounded=1;whiteSpace=wrap;html=1;" vertex="1" parent="1">
          <mxGeometry x="-160" y="190" width="130" height="35" as="geometry" />
        </mxCell>
        <mxCell id="U_gQNEzkCNmI3OpJBA2w-35" style="edgeStyle=orthogonalEdgeStyle;rounded=0;orthogonalLoop=1;jettySize=auto;html=1;curved=0;" edge="1" parent="1" source="U_gQNEzkCNmI3OpJBA2w-28" target="uGXpiW6hWEtXekt-hqfW-35">
          <mxGeometry relative="1" as="geometry">
            <Array as="points">
              <mxPoint x="-117" y="280" />
              <mxPoint x="-117" y="280" />
            </Array>
          </mxGeometry>
        </mxCell>
        <mxCell id="U_gQNEzkCNmI3OpJBA2w-36" style="edgeStyle=orthogonalEdgeStyle;rounded=0;orthogonalLoop=1;jettySize=auto;html=1;curved=0;" edge="1" parent="1" source="U_gQNEzkCNmI3OpJBA2w-28" target="U_gQNEzkCNmI3OpJBA2w-34">
          <mxGeometry relative="1" as="geometry">
            <Array as="points">
              <mxPoint x="-62" y="300" />
              <mxPoint x="-62" y="300" />
            </Array>
          </mxGeometry>
        </mxCell>
        <mxCell id="U_gQNEzkCNmI3OpJBA2w-28" value="" style="html=1;points=[[0,0,0,0,5],[0,1,0,0,-5],[1,0,0,0,5],[1,1,0,0,-5]];perimeter=orthogonalPerimeter;outlineConnect=0;targetShapes=umlLifeline;portConstraint=eastwest;newEdgeStyle={&quot;curved&quot;:0,&quot;rounded&quot;:0};fillStyle=auto;fillColor=light-dark(#000000,#000000);direction=south;" vertex="1" parent="1">
          <mxGeometry x="-165" y="260" width="140" height="15" as="geometry" />
        </mxCell>
        <mxCell id="U_gQNEzkCNmI3OpJBA2w-30" value="Accede a funciones" style="text;html=1;align=center;verticalAlign=middle;whiteSpace=wrap;rounded=0;" vertex="1" parent="1">
          <mxGeometry x="-530" y="375" width="150" height="20" as="geometry" />
        </mxCell>
        <mxCell id="U_gQNEzkCNmI3OpJBA2w-32" value="Accede a funciones" style="text;html=1;align=center;verticalAlign=middle;whiteSpace=wrap;rounded=0;" vertex="1" parent="1">
          <mxGeometry x="-100" y="225" width="150" height="20" as="geometry" />
        </mxCell>
        <mxCell id="U_gQNEzkCNmI3OpJBA2w-34" value="Crear reporte de daÃ±os" style="rounded=1;whiteSpace=wrap;html=1;" vertex="1" parent="1">
          <mxGeometry x="-110" y="365" width="95" height="30" as="geometry" />
        </mxCell>
        <mxCell id="U_gQNEzkCNmI3OpJBA2w-51" style="edgeStyle=orthogonalEdgeStyle;rounded=0;orthogonalLoop=1;jettySize=auto;html=1;" edge="1" parent="1" source="U_gQNEzkCNmI3OpJBA2w-40" target="U_gQNEzkCNmI3OpJBA2w-44">
          <mxGeometry relative="1" as="geometry">
            <Array as="points">
              <mxPoint x="285" y="180" />
              <mxPoint x="285" y="180" />
            </Array>
          </mxGeometry>
        </mxCell>
        <mxCell id="U_gQNEzkCNmI3OpJBA2w-40" value="Verificar Rol (Es Rol Calidad)" style="rounded=1;whiteSpace=wrap;html=1;" vertex="1" parent="1">
          <mxGeometry x="220" y="110" width="130" height="35" as="geometry" />
        </mxCell>
        <mxCell id="U_gQNEzkCNmI3OpJBA2w-42" value="Accede a funciÃ³n" style="text;html=1;align=center;verticalAlign=middle;whiteSpace=wrap;rounded=0;" vertex="1" parent="1">
          <mxGeometry x="-330" y="370" width="150" height="20" as="geometry" />
        </mxCell>
        <mxCell id="U_gQNEzkCNmI3OpJBA2w-52" style="edgeStyle=orthogonalEdgeStyle;rounded=0;orthogonalLoop=1;jettySize=auto;html=1;curved=0;" edge="1" parent="1" source="U_gQNEzkCNmI3OpJBA2w-44" target="U_gQNEzkCNmI3OpJBA2w-47">
          <mxGeometry relative="1" as="geometry">
            <Array as="points">
              <mxPoint x="340" y="220" />
              <mxPoint x="340" y="220" />
            </Array>
          </mxGeometry>
        </mxCell>
        <mxCell id="U_gQNEzkCNmI3OpJBA2w-53" style="edgeStyle=orthogonalEdgeStyle;rounded=0;orthogonalLoop=1;jettySize=auto;html=1;curved=0;" edge="1" parent="1" source="U_gQNEzkCNmI3OpJBA2w-44" target="U_gQNEzkCNmI3OpJBA2w-50">
          <mxGeometry relative="1" as="geometry">
            <Array as="points">
              <mxPoint x="310" y="260" />
              <mxPoint x="310" y="260" />
            </Array>
          </mxGeometry>
        </mxCell>
        <mxCell id="U_gQNEzkCNmI3OpJBA2w-54" style="edgeStyle=orthogonalEdgeStyle;rounded=0;orthogonalLoop=1;jettySize=auto;html=1;curved=0;" edge="1" parent="1" source="U_gQNEzkCNmI3OpJBA2w-44" target="U_gQNEzkCNmI3OpJBA2w-49">
          <mxGeometry relative="1" as="geometry">
            <Array as="points">
              <mxPoint x="280" y="250" />
              <mxPoint x="280" y="250" />
            </Array>
          </mxGeometry>
        </mxCell>
        <mxCell id="U_gQNEzkCNmI3OpJBA2w-57" style="edgeStyle=orthogonalEdgeStyle;rounded=0;orthogonalLoop=1;jettySize=auto;html=1;curved=0;" edge="1" parent="1" source="U_gQNEzkCNmI3OpJBA2w-44" target="U_gQNEzkCNmI3OpJBA2w-48">
          <mxGeometry relative="1" as="geometry">
            <Array as="points">
              <mxPoint x="250" y="320" />
              <mxPoint x="250" y="320" />
            </Array>
          </mxGeometry>
        </mxCell>
        <mxCell id="U_gQNEzkCNmI3OpJBA2w-58" style="edgeStyle=orthogonalEdgeStyle;rounded=0;orthogonalLoop=1;jettySize=auto;html=1;curved=0;" edge="1" parent="1" source="U_gQNEzkCNmI3OpJBA2w-44" target="uGXpiW6hWEtXekt-hqfW-36">
          <mxGeometry relative="1" as="geometry">
            <Array as="points">
              <mxPoint x="230" y="240" />
              <mxPoint x="230" y="240" />
            </Array>
          </mxGeometry>
        </mxCell>
        <mxCell id="U_gQNEzkCNmI3OpJBA2w-44" value="" style="html=1;points=[[0,0,0,0,5],[0,1,0,0,-5],[1,0,0,0,5],[1,1,0,0,-5]];perimeter=orthogonalPerimeter;outlineConnect=0;targetShapes=umlLifeline;portConstraint=eastwest;newEdgeStyle={&quot;curved&quot;:0,&quot;rounded&quot;:0};fillStyle=auto;fillColor=light-dark(#000000,#000000);direction=south;" vertex="1" parent="1">
          <mxGeometry x="170" y="180" width="190" height="15" as="geometry" />
        </mxCell>
        <mxCell id="U_gQNEzkCNmI3OpJBA2w-45" value="Accede a funciones" style="text;html=1;align=center;verticalAlign=middle;whiteSpace=wrap;rounded=0;" vertex="1" parent="1">
          <mxGeometry x="279" y="150" width="150" height="20" as="geometry" />
        </mxCell>
        <mxCell id="U_gQNEzkCNmI3OpJBA2w-47" value="Ver documentaciones" style="rounded=1;whiteSpace=wrap;html=1;" vertex="1" parent="1">
          <mxGeometry x="320" y="240" width="125" height="30" as="geometry" />
        </mxCell>
        <mxCell id="U_gQNEzkCNmI3OpJBA2w-48" value="Ver listado de timbres" style="rounded=1;whiteSpace=wrap;html=1;" vertex="1" parent="1">
          <mxGeometry x="240" y="350" width="130" height="30" as="geometry" />
        </mxCell>
        <mxCell id="U_gQNEzkCNmI3OpJBA2w-49" value="Ver parÃ¡metros de calidad" style="rounded=1;whiteSpace=wrap;html=1;" vertex="1" parent="1">
          <mxGeometry x="264" y="310" width="150" height="30" as="geometry" />
        </mxCell>
        <mxCell id="U_gQNEzkCNmI3OpJBA2w-50" value="Ver defectos de calidad" style="rounded=1;whiteSpace=wrap;html=1;" vertex="1" parent="1">
          <mxGeometry x="289" y="275" width="141" height="30" as="geometry" />
        </mxCell>
        <mxCell id="U_gQNEzkCNmI3OpJBA2w-61" value="" style="edgeStyle=orthogonalEdgeStyle;rounded=0;orthogonalLoop=1;jettySize=auto;html=1;" edge="1" parent="1" source="U_gQNEzkCNmI3OpJBA2w-34" target="U_gQNEzkCNmI3OpJBA2w-60">
          <mxGeometry relative="1" as="geometry">
            <mxPoint x="-62" y="395" as="sourcePoint" />
            <mxPoint y="620" as="targetPoint" />
            <Array as="points">
              <mxPoint x="-62" y="470" />
              <mxPoint y="470" />
            </Array>
          </mxGeometry>
        </mxCell>
        <mxCell id="U_gQNEzkCNmI3OpJBA2w-66" style="edgeStyle=orthogonalEdgeStyle;rounded=0;orthogonalLoop=1;jettySize=auto;html=1;curved=0;" edge="1" parent="1" source="U_gQNEzkCNmI3OpJBA2w-60" target="2GRjtVOv6-w5aZt-ovkl-2">
          <mxGeometry relative="1" as="geometry">
            <Array as="points">
              <mxPoint y="580" />
              <mxPoint y="580" />
            </Array>
          </mxGeometry>
        </mxCell>
        <mxCell id="U_gQNEzkCNmI3OpJBA2w-60" value="" style="html=1;points=[[0,0,0,0,5],[0,1,0,0,-5],[1,0,0,0,5],[1,1,0,0,-5]];perimeter=orthogonalPerimeter;outlineConnect=0;targetShapes=umlLifeline;portConstraint=eastwest;newEdgeStyle={&quot;curved&quot;:0,&quot;rounded&quot;:0};fillStyle=auto;fillColor=light-dark(#000000,#000000);direction=south;" vertex="1" parent="1">
          <mxGeometry x="-70" y="537.5" width="140" height="15" as="geometry" />
        </mxCell>
        <mxCell id="U_gQNEzkCNmI3OpJBA2w-70" value="Mensajes esperados" style="text;html=1;align=center;verticalAlign=middle;whiteSpace=wrap;rounded=0;" vertex="1" parent="1">
          <mxGeometry x="330" y="590" width="150" height="20" as="geometry" />
        </mxCell>
        <mxCell id="U_gQNEzkCNmI3OpJBA2w-72" value="Canalizar informaciones" style="text;html=1;align=center;verticalAlign=middle;whiteSpace=wrap;rounded=0;" vertex="1" parent="1">
          <mxGeometry x="-150" y="510" width="150" height="20" as="geometry" />
        </mxCell>
        <mxCell id="U_gQNEzkCNmI3OpJBA2w-73" value="Mensaje viaja a los distintos roles" style="text;html=1;align=center;verticalAlign=middle;whiteSpace=wrap;rounded=0;" vertex="1" parent="1">
          <mxGeometry x="85" y="600" width="150" height="20" as="geometry" />
        </mxCell>
        <mxCell id="U_gQNEzkCNmI3OpJBA2w-75" value="Fin de Proceso" style="text;html=1;align=center;verticalAlign=middle;whiteSpace=wrap;rounded=0;" vertex="1" parent="1">
          <mxGeometry x="-585" y="630" width="150" height="20" as="geometry" />
        </mxCell>
        <mxCell id="U_gQNEzkCNmI3OpJBA2w-76" value="Inicio de Proceso" style="text;html=1;align=center;verticalAlign=middle;whiteSpace=wrap;rounded=0;" vertex="1" parent="1">
          <mxGeometry x="-790" y="110" width="150" height="10" as="geometry" />
        </mxCell>
      </root>
    </mxGraphModel>
  </diagram>
</mxfile>
